<mxfile host="app.diagrams.net" agent="Mozilla/5.0 (Macintosh; Intel Mac OS X 10_15_7) AppleWebKit/537.36 (KHTML, like Gecko) Chrome/133.0.0.0 Safari/537.36" version="26.0.16">
  <diagram name="第 1 页" id="q1KnV8SIaWFdPeC2tP6b">
    <mxGraphModel dx="444" dy="293" grid="1" gridSize="10" guides="1" tooltips="1" connect="1" arrows="1" fold="1" page="1" pageScale="1" pageWidth="827" pageHeight="1169" math="0" shadow="0">
      <root>
        <mxCell id="0" />
        <mxCell id="1" parent="0" />
        <mxCell id="1zNpcJ69jEQYN1M2Kz2E-1" value="" style="rounded=1;whiteSpace=wrap;html=1;fontFamily=Times New Roman;fillColor=#ffe6cc;strokeColor=#d79b00;dashed=1;" vertex="1" parent="1">
          <mxGeometry x="412" y="306" width="258" height="91" as="geometry" />
        </mxCell>
        <mxCell id="1zNpcJ69jEQYN1M2Kz2E-2" value="" style="group;fontFamily=Times New Roman;" vertex="1" connectable="0" parent="1">
          <mxGeometry x="420" y="311" width="226" height="84" as="geometry" />
        </mxCell>
        <mxCell id="1zNpcJ69jEQYN1M2Kz2E-3" value="&lt;font&gt;&lt;b&gt;Density&lt;br&gt;&lt;/b&gt;&lt;/font&gt;&lt;b style=&quot;background-color: transparent; color: light-dark(rgb(0, 0, 0), rgb(255, 255, 255));&quot;&gt;Map&lt;/b&gt;" style="text;html=1;align=center;verticalAlign=middle;whiteSpace=wrap;rounded=0;fontSize=8;fontFamily=Times New Roman;" vertex="1" parent="1zNpcJ69jEQYN1M2Kz2E-2">
          <mxGeometry x="74.03448275862068" y="3" width="58.44827586206897" height="29.734513274336283" as="geometry" />
        </mxCell>
        <mxCell id="1zNpcJ69jEQYN1M2Kz2E-4" value="&lt;b&gt;&lt;font&gt;CCM&lt;/font&gt;&lt;/b&gt;" style="text;html=1;align=center;verticalAlign=middle;whiteSpace=wrap;rounded=0;fontFamily=Times New Roman;fontSize=11;fontColor=default;labelBackgroundColor=none;" vertex="1" parent="1zNpcJ69jEQYN1M2Kz2E-2">
          <mxGeometry x="-13.20999999999998" y="-12.75" width="60" height="30" as="geometry" />
        </mxCell>
        <mxCell id="1zNpcJ69jEQYN1M2Kz2E-5" value="&lt;font style=&quot;font-size: 8px;&quot;&gt;&lt;b style=&quot;&quot;&gt;Classification &lt;br&gt;Scores&lt;/b&gt;&lt;/font&gt;" style="text;html=1;align=center;verticalAlign=middle;whiteSpace=wrap;rounded=0;fontFamily=Times New Roman;fontSize=6;fontColor=default;labelBackgroundColor=none;" vertex="1" parent="1">
          <mxGeometry x="584" y="300.74" width="60" height="30" as="geometry" />
        </mxCell>
        <mxCell id="1zNpcJ69jEQYN1M2Kz2E-6" value="&lt;font style=&quot;font-size: 7px;&quot;&gt;&lt;b style=&quot;&quot;&gt;Queries&lt;/b&gt;&lt;/font&gt;" style="text;html=1;align=center;verticalAlign=middle;whiteSpace=wrap;rounded=0;fontFamily=Times New Roman;fontSize=6;fontColor=default;labelBackgroundColor=none;" vertex="1" parent="1">
          <mxGeometry x="619" y="305" width="60" height="30" as="geometry" />
        </mxCell>
        <mxCell id="1zNpcJ69jEQYN1M2Kz2E-7" value="" style="group;fontFamily=Times New Roman;" vertex="1" connectable="0" parent="1">
          <mxGeometry x="425" y="323.45150442477876" width="198.78999999999994" height="69.38053097345133" as="geometry" />
        </mxCell>
        <mxCell id="1zNpcJ69jEQYN1M2Kz2E-8" value="&lt;p style=&quot;margin: 0px; font-variant-numeric: normal; font-variant-east-asian: normal; font-variant-alternates: normal; font-size-adjust: none; font-kerning: auto; font-optical-sizing: auto; font-feature-settings: normal; font-variation-settings: normal; font-variant-position: normal; font-variant-emoji: normal; font-stretch: normal; line-height: normal; text-align: start;&quot; class=&quot;p1&quot;&gt;&lt;font style=&quot;color: rgb(0, 0, 0); font-size: 11px;&quot;&gt;1×1 conv&lt;/font&gt;&lt;/p&gt;" style="rounded=0;whiteSpace=wrap;html=1;horizontal=0;fontFamily=Times New Roman;" vertex="1" parent="1zNpcJ69jEQYN1M2Kz2E-7">
          <mxGeometry width="15.586206896551724" height="69.38053097345133" as="geometry" />
        </mxCell>
        <mxCell id="1zNpcJ69jEQYN1M2Kz2E-9" value="" style="whiteSpace=wrap;html=1;aspect=fixed;fillColor=#f5f5f5;strokeColor=light-dark(#817979, #959595);gradientColor=#D4E1F5;gradientDirection=radial;fontFamily=Times New Roman;" vertex="1" parent="1zNpcJ69jEQYN1M2Kz2E-7">
          <mxGeometry x="85" y="22.54849557522124" width="23.76" height="23.76" as="geometry" />
        </mxCell>
        <mxCell id="1zNpcJ69jEQYN1M2Kz2E-10" value="" style="shape=table;startSize=0;container=1;collapsible=0;childLayout=tableLayout;fontSize=14;fontFamily=Times New Roman;align=center;" vertex="1" parent="1zNpcJ69jEQYN1M2Kz2E-7">
          <mxGeometry x="184.20379310344822" y="4.532035398230107" width="14.586206896551724" height="59.79646017699115" as="geometry" />
        </mxCell>
        <mxCell id="1zNpcJ69jEQYN1M2Kz2E-11" style="shape=tableRow;horizontal=0;startSize=0;swimlaneHead=0;swimlaneBody=0;strokeColor=inherit;top=0;left=0;bottom=0;right=0;collapsible=0;dropTarget=0;fillColor=none;points=[[0,0.5],[1,0.5]];portConstraint=eastwest;fontSize=16;fontFamily=Times New Roman;" vertex="1" parent="1zNpcJ69jEQYN1M2Kz2E-10">
          <mxGeometry width="14.586206896551724" height="15" as="geometry" />
        </mxCell>
        <mxCell id="1zNpcJ69jEQYN1M2Kz2E-12" value="&lt;font style=&quot;font-size: 8px;&quot;&gt;0.1&lt;/font&gt;" style="shape=partialRectangle;html=1;whiteSpace=wrap;connectable=0;strokeColor=inherit;overflow=hidden;fillColor=none;top=0;left=0;bottom=0;right=0;pointerEvents=1;fontSize=10;fontFamily=Times New Roman;" vertex="1" parent="1zNpcJ69jEQYN1M2Kz2E-11">
          <mxGeometry width="15" height="15" as="geometry">
            <mxRectangle width="15" height="15" as="alternateBounds" />
          </mxGeometry>
        </mxCell>
        <mxCell id="1zNpcJ69jEQYN1M2Kz2E-13" value="" style="shape=tableRow;horizontal=0;startSize=0;swimlaneHead=0;swimlaneBody=0;strokeColor=inherit;top=0;left=0;bottom=0;right=0;collapsible=0;dropTarget=0;fillColor=none;points=[[0,0.5],[1,0.5]];portConstraint=eastwest;fontSize=16;fontFamily=Times New Roman;" vertex="1" parent="1zNpcJ69jEQYN1M2Kz2E-10">
          <mxGeometry y="15" width="14.586206896551724" height="15" as="geometry" />
        </mxCell>
        <mxCell id="1zNpcJ69jEQYN1M2Kz2E-14" value="&lt;font style=&quot;font-size: 8px;&quot;&gt;0.3&lt;/font&gt;" style="shape=partialRectangle;html=1;whiteSpace=wrap;connectable=0;strokeColor=inherit;overflow=hidden;fillColor=none;top=0;left=0;bottom=0;right=0;pointerEvents=1;fontSize=10;fontFamily=Times New Roman;" vertex="1" parent="1zNpcJ69jEQYN1M2Kz2E-13">
          <mxGeometry width="15" height="15" as="geometry">
            <mxRectangle width="15" height="15" as="alternateBounds" />
          </mxGeometry>
        </mxCell>
        <mxCell id="1zNpcJ69jEQYN1M2Kz2E-15" value="" style="shape=tableRow;horizontal=0;startSize=0;swimlaneHead=0;swimlaneBody=0;strokeColor=inherit;top=0;left=0;bottom=0;right=0;collapsible=0;dropTarget=0;fillColor=none;points=[[0,0.5],[1,0.5]];portConstraint=eastwest;fontSize=16;fontFamily=Times New Roman;" vertex="1" parent="1zNpcJ69jEQYN1M2Kz2E-10">
          <mxGeometry y="30" width="14.586206896551724" height="15" as="geometry" />
        </mxCell>
        <mxCell id="1zNpcJ69jEQYN1M2Kz2E-16" value="&lt;font style=&quot;font-size: 8px;&quot;&gt;0.1&lt;/font&gt;" style="shape=partialRectangle;html=1;whiteSpace=wrap;connectable=0;strokeColor=inherit;overflow=hidden;fillColor=none;top=0;left=0;bottom=0;right=0;pointerEvents=1;fontSize=10;fontFamily=Times New Roman;" vertex="1" parent="1zNpcJ69jEQYN1M2Kz2E-15">
          <mxGeometry width="15" height="15" as="geometry">
            <mxRectangle width="15" height="15" as="alternateBounds" />
          </mxGeometry>
        </mxCell>
        <mxCell id="1zNpcJ69jEQYN1M2Kz2E-17" style="shape=tableRow;horizontal=0;startSize=0;swimlaneHead=0;swimlaneBody=0;strokeColor=inherit;top=0;left=0;bottom=0;right=0;collapsible=0;dropTarget=0;fillColor=none;points=[[0,0.5],[1,0.5]];portConstraint=eastwest;fontSize=16;fontFamily=Times New Roman;" vertex="1" parent="1zNpcJ69jEQYN1M2Kz2E-10">
          <mxGeometry y="45" width="14.586206896551724" height="15" as="geometry" />
        </mxCell>
        <mxCell id="1zNpcJ69jEQYN1M2Kz2E-18" value="&lt;font style=&quot;font-size: 8px;&quot;&gt;0.5&lt;/font&gt;" style="shape=partialRectangle;html=1;whiteSpace=wrap;connectable=0;strokeColor=inherit;overflow=hidden;fillColor=none;top=0;left=0;bottom=0;right=0;pointerEvents=1;fontSize=10;fontFamily=Times New Roman;" vertex="1" parent="1zNpcJ69jEQYN1M2Kz2E-17">
          <mxGeometry width="15" height="15" as="geometry">
            <mxRectangle width="15" height="15" as="alternateBounds" />
          </mxGeometry>
        </mxCell>
        <mxCell id="1zNpcJ69jEQYN1M2Kz2E-19" value="&lt;p style=&quot;margin: 0px; font-variant-numeric: normal; font-variant-east-asian: normal; font-variant-alternates: normal; font-size-adjust: none; font-kerning: auto; font-optical-sizing: auto; font-feature-settings: normal; font-variation-settings: normal; font-variant-position: normal; font-variant-emoji: normal; font-stretch: normal; line-height: normal; text-align: start;&quot; class=&quot;p1&quot;&gt;&lt;font style=&quot;color: rgb(0, 0, 0); font-size: 11px;&quot;&gt;dilated conv&lt;/font&gt;&lt;/p&gt;" style="rounded=0;whiteSpace=wrap;html=1;horizontal=0;fontFamily=Times New Roman;" vertex="1" parent="1zNpcJ69jEQYN1M2Kz2E-7">
          <mxGeometry x="28.25" width="15.586206896551724" height="69.38053097345133" as="geometry" />
        </mxCell>
        <mxCell id="1zNpcJ69jEQYN1M2Kz2E-20" value="&lt;font style=&quot;font-size: 11px;&quot;&gt;ReLU&lt;/font&gt;" style="rounded=0;whiteSpace=wrap;html=1;horizontal=0;fontFamily=Times New Roman;" vertex="1" parent="1zNpcJ69jEQYN1M2Kz2E-7">
          <mxGeometry x="56.5" width="15.586206896551724" height="69.38053097345133" as="geometry" />
        </mxCell>
        <mxCell id="1zNpcJ69jEQYN1M2Kz2E-21" value="&lt;font style=&quot;font-size: 11px;&quot;&gt;Avg Pooling&lt;/font&gt;" style="rounded=0;whiteSpace=wrap;html=1;horizontal=0;fontFamily=Times New Roman;" vertex="1" parent="1zNpcJ69jEQYN1M2Kz2E-7">
          <mxGeometry x="123.4310344827586" width="15.586206896551724" height="69.38053097345133" as="geometry" />
        </mxCell>
        <mxCell id="1zNpcJ69jEQYN1M2Kz2E-22" value="&lt;font style=&quot;font-size: 11px; font-weight: normal;&quot;&gt;FFN&lt;/font&gt;" style="rounded=0;whiteSpace=wrap;html=1;fontStyle=1;horizontal=0;fontFamily=Times New Roman;" vertex="1" parent="1zNpcJ69jEQYN1M2Kz2E-7">
          <mxGeometry x="156.99758620689647" y="5.430000000000007" width="13" height="58" as="geometry" />
        </mxCell>
        <mxCell id="1zNpcJ69jEQYN1M2Kz2E-23" value="" style="endArrow=classicThin;html=1;rounded=0;entryX=0;entryY=0.5;entryDx=0;entryDy=0;exitX=1;exitY=0.5;exitDx=0;exitDy=0;endFill=1;strokeWidth=0.5;curved=1;startArrow=none;startFill=0;fontFamily=Times New Roman;" edge="1" parent="1zNpcJ69jEQYN1M2Kz2E-7" source="1zNpcJ69jEQYN1M2Kz2E-8" target="1zNpcJ69jEQYN1M2Kz2E-19">
          <mxGeometry width="50" height="50" relative="1" as="geometry">
            <mxPoint x="-52.60344827586209" y="19.82300884955754" as="sourcePoint" />
            <mxPoint x="-3.8965517241379075" y="-29.73451327433628" as="targetPoint" />
          </mxGeometry>
        </mxCell>
        <mxCell id="1zNpcJ69jEQYN1M2Kz2E-24" value="" style="endArrow=classicThin;html=1;rounded=0;entryX=0;entryY=0.5;entryDx=0;entryDy=0;exitX=1;exitY=0.5;exitDx=0;exitDy=0;endFill=1;strokeWidth=0.5;jumpSize=7;fontFamily=Times New Roman;" edge="1" parent="1zNpcJ69jEQYN1M2Kz2E-7" source="1zNpcJ69jEQYN1M2Kz2E-19" target="1zNpcJ69jEQYN1M2Kz2E-20">
          <mxGeometry width="50" height="50" relative="1" as="geometry">
            <mxPoint x="25.32758620689657" y="44.60176991150445" as="sourcePoint" />
            <mxPoint x="37.991379310344826" y="44.60176991150445" as="targetPoint" />
          </mxGeometry>
        </mxCell>
        <mxCell id="1zNpcJ69jEQYN1M2Kz2E-25" value="" style="endArrow=classicThin;html=1;rounded=0;endFill=1;strokeWidth=0.3;sourcePerimeterSpacing=0;fontSize=11;exitX=1;exitY=0.5;exitDx=0;exitDy=0;entryX=0;entryY=0.5;entryDx=0;entryDy=0;fontFamily=Times New Roman;" edge="1" parent="1zNpcJ69jEQYN1M2Kz2E-7" source="1zNpcJ69jEQYN1M2Kz2E-20" target="1zNpcJ69jEQYN1M2Kz2E-9">
          <mxGeometry width="50" height="50" relative="1" as="geometry">
            <mxPoint x="75.00862068965517" y="34.69026548672565" as="sourcePoint" />
            <mxPoint x="86.69827586206895" y="34.69026548672565" as="targetPoint" />
          </mxGeometry>
        </mxCell>
        <mxCell id="1zNpcJ69jEQYN1M2Kz2E-26" value="" style="endArrow=classicThin;html=1;rounded=0;entryX=0;entryY=0.5;entryDx=0;entryDy=0;exitX=1;exitY=0.5;exitDx=0;exitDy=0;endFill=1;strokeWidth=0.3;fontFamily=Times New Roman;" edge="1" parent="1zNpcJ69jEQYN1M2Kz2E-7" source="1zNpcJ69jEQYN1M2Kz2E-21" target="1zNpcJ69jEQYN1M2Kz2E-22">
          <mxGeometry width="50" height="50" relative="1" as="geometry">
            <mxPoint x="116.61206896551721" y="44.60176991150445" as="sourcePoint" />
            <mxPoint x="133.1724137931035" y="44.60176991150445" as="targetPoint" />
          </mxGeometry>
        </mxCell>
        <mxCell id="1zNpcJ69jEQYN1M2Kz2E-27" value="" style="endArrow=classicThin;html=1;rounded=0;endFill=1;strokeWidth=0.3;sourcePerimeterSpacing=0;fontSize=11;exitX=1;exitY=0.5;exitDx=0;exitDy=0;entryX=0;entryY=0.5;entryDx=0;entryDy=0;fontFamily=Times New Roman;" edge="1" parent="1zNpcJ69jEQYN1M2Kz2E-7" source="1zNpcJ69jEQYN1M2Kz2E-9" target="1zNpcJ69jEQYN1M2Kz2E-21">
          <mxGeometry width="50" height="50" relative="1" as="geometry">
            <mxPoint x="120.79310344827582" y="34.69026548672565" as="sourcePoint" />
            <mxPoint x="132.48275862068965" y="34.69026548672565" as="targetPoint" />
          </mxGeometry>
        </mxCell>
        <mxCell id="1zNpcJ69jEQYN1M2Kz2E-28" value="" style="endArrow=classicThin;html=1;rounded=0;strokeWidth=0.3;endFill=1;exitX=1;exitY=0.5;exitDx=0;exitDy=0;fontFamily=Times New Roman;" edge="1" parent="1zNpcJ69jEQYN1M2Kz2E-7" source="1zNpcJ69jEQYN1M2Kz2E-22">
          <mxGeometry width="50" height="50" relative="1" as="geometry">
            <mxPoint x="102" y="109.02654867256632" as="sourcePoint" />
            <mxPoint x="184" y="34.28849557522125" as="targetPoint" />
          </mxGeometry>
        </mxCell>
        <mxCell id="1zNpcJ69jEQYN1M2Kz2E-29" value="" style="group;fontFamily=Times New Roman;" vertex="1" connectable="0" parent="1">
          <mxGeometry x="617.79" y="322" width="60.41000000000008" height="69.82999999999998" as="geometry" />
        </mxCell>
        <mxCell id="1zNpcJ69jEQYN1M2Kz2E-30" value="" style="endArrow=classicThin;html=1;rounded=0;strokeWidth=0.3;endFill=1;exitX=1;exitY=0.5;exitDx=0;exitDy=0;fontSize=6;fontFamily=Times New Roman;" edge="1" parent="1zNpcJ69jEQYN1M2Kz2E-29">
          <mxGeometry width="50" height="50" relative="1" as="geometry">
            <mxPoint x="7.210000000000036" y="13.740000000000009" as="sourcePoint" />
            <mxPoint x="20.210000000000036" y="13.740000000000009" as="targetPoint" />
          </mxGeometry>
        </mxCell>
        <mxCell id="1zNpcJ69jEQYN1M2Kz2E-31" value="" style="endArrow=classicThin;html=1;rounded=0;strokeWidth=0.3;endFill=1;exitX=1;exitY=0.5;exitDx=0;exitDy=0;fontSize=6;fontFamily=Times New Roman;" edge="1" parent="1zNpcJ69jEQYN1M2Kz2E-29">
          <mxGeometry width="50" height="50" relative="1" as="geometry">
            <mxPoint x="7.210000000000036" y="28.74000000000001" as="sourcePoint" />
            <mxPoint x="20.210000000000036" y="28.74000000000001" as="targetPoint" />
          </mxGeometry>
        </mxCell>
        <mxCell id="1zNpcJ69jEQYN1M2Kz2E-32" value="" style="endArrow=classicThin;html=1;rounded=0;strokeWidth=0.3;endFill=1;exitX=1;exitY=0.5;exitDx=0;exitDy=0;fontSize=6;fontFamily=Times New Roman;" edge="1" parent="1zNpcJ69jEQYN1M2Kz2E-29">
          <mxGeometry width="50" height="50" relative="1" as="geometry">
            <mxPoint x="7.670000000000073" y="43.74000000000001" as="sourcePoint" />
            <mxPoint x="20.670000000000073" y="43.74000000000001" as="targetPoint" />
          </mxGeometry>
        </mxCell>
        <mxCell id="1zNpcJ69jEQYN1M2Kz2E-33" value="" style="endArrow=classicThin;html=1;rounded=0;strokeWidth=0.3;endFill=1;exitX=1;exitY=0.5;exitDx=0;exitDy=0;fontSize=6;fontFamily=Times New Roman;" edge="1" parent="1zNpcJ69jEQYN1M2Kz2E-29">
          <mxGeometry width="50" height="50" relative="1" as="geometry">
            <mxPoint x="7.670000000000073" y="57.74000000000001" as="sourcePoint" />
            <mxPoint x="20.670000000000073" y="57.74000000000001" as="targetPoint" />
          </mxGeometry>
        </mxCell>
        <mxCell id="1zNpcJ69jEQYN1M2Kz2E-34" value="&lt;font style=&quot;font-size: 8px;&quot;&gt;K=300&lt;/font&gt;" style="text;html=1;align=center;verticalAlign=middle;whiteSpace=wrap;rounded=0;fontFamily=Times New Roman;fontSize=6;fontColor=default;labelBackgroundColor=none;" vertex="1" parent="1zNpcJ69jEQYN1M2Kz2E-29">
          <mxGeometry x="3" width="60" height="25" as="geometry" />
        </mxCell>
        <mxCell id="1zNpcJ69jEQYN1M2Kz2E-35" value="&lt;font style=&quot;font-size: 8px;&quot;&gt;K=400&lt;/font&gt;" style="text;html=1;align=center;verticalAlign=middle;whiteSpace=wrap;rounded=0;fontFamily=Times New Roman;fontSize=6;fontColor=default;labelBackgroundColor=none;" vertex="1" parent="1zNpcJ69jEQYN1M2Kz2E-29">
          <mxGeometry x="3" y="15.740000000000009" width="60" height="25" as="geometry" />
        </mxCell>
        <mxCell id="1zNpcJ69jEQYN1M2Kz2E-36" value="&lt;font style=&quot;font-size: 8px;&quot;&gt;K=600&lt;/font&gt;" style="text;html=1;align=center;verticalAlign=middle;whiteSpace=wrap;rounded=0;fontFamily=Times New Roman;fontSize=6;fontColor=default;labelBackgroundColor=none;" vertex="1" parent="1zNpcJ69jEQYN1M2Kz2E-29">
          <mxGeometry x="3.2100000000000364" y="30" width="60" height="25" as="geometry" />
        </mxCell>
        <mxCell id="1zNpcJ69jEQYN1M2Kz2E-37" value="&lt;font style=&quot;font-size: 8px;&quot;&gt;K=1000&lt;/font&gt;" style="text;html=1;align=center;verticalAlign=middle;whiteSpace=wrap;rounded=0;fontFamily=Times New Roman;fontSize=6;fontColor=default;labelBackgroundColor=none;" vertex="1" parent="1zNpcJ69jEQYN1M2Kz2E-29">
          <mxGeometry x="5.410000000000082" y="44.829999999999984" width="60" height="25" as="geometry" />
        </mxCell>
        <mxCell id="1zNpcJ69jEQYN1M2Kz2E-38" value="" style="endArrow=classic;html=1;rounded=0;exitX=0;exitY=0;exitDx=20.5;exitDy=29.5;exitPerimeter=0;entryX=0;entryY=0.5;entryDx=0;entryDy=0;fontFamily=Times New Roman;" edge="1" parent="1">
          <mxGeometry width="50" height="50" relative="1" as="geometry">
            <mxPoint x="383" y="357.5" as="sourcePoint" />
            <mxPoint x="423" y="357.60176991150433" as="targetPoint" />
          </mxGeometry>
        </mxCell>
        <mxCell id="1zNpcJ69jEQYN1M2Kz2E-39" value="S&lt;sub&gt;1&lt;/sub&gt;" style="text;html=1;align=center;verticalAlign=middle;whiteSpace=wrap;rounded=0;fontFamily=Times New Roman;" vertex="1" parent="1">
          <mxGeometry x="346" y="348" width="49" height="22.91" as="geometry" />
        </mxCell>
      </root>
    </mxGraphModel>
  </diagram>
</mxfile>
